<svg xmlns="http://www.w3.org/2000/svg" width="1800" height="4050" viewBox="0 0 1800 4050" role="img" aria-labelledby="title desc">
  <title id="title">Corrected Chronological Story Map of the Candy Factory / Mouse Protocol SAGA</title>
  <desc id="desc">A corrected chronological visual map showing Era of Smog before Philip and Mario, Era in Betwe after the Rossing of Mario, Factory Closure as the end of Part II, and Part III as Great Depresion, Continuum, Second Booting, Genesis of Rebis, and the Mouse Incident.</desc>
  <defs>
    <linearGradient id="bg" x1="0" y1="0" x2="1" y2="1">
      <stop offset="0" stop-color="#070908"/>
      <stop offset="0.42" stop-color="#101717"/>
      <stop offset="0.72" stop-color="#17110b"/>
      <stop offset="1" stop-color="#050606"/>
    </linearGradient>
    <linearGradient id="rail" x1="0" y1="0" x2="0" y2="1">
      <stop offset="0" stop-color="#8ef7c6"/>
      <stop offset="0.33" stop-color="#f3d66f"/>
      <stop offset="0.66" stop-color="#ec7d67"/>
      <stop offset="1" stop-color="#9ad0ff"/>
    </linearGradient>
    <filter id="glow" x="-40%" y="-40%" width="180%" height="180%">
      <feGaussianBlur stdDeviation="7" result="blur"/>
      <feColorMatrix in="blur" type="matrix" values="0 0 0 0 0.42 0 0 0 0 0.95 0 0 0 0 0.72 0 0 0 0.5 0"/>
      <feMerge><feMergeNode/><feMergeNode in="SourceGraphic"/></feMerge>
    </filter>
    <filter id="softShadow" x="-20%" y="-20%" width="140%" height="140%">
      <feDropShadow dx="0" dy="10" stdDeviation="12" flood-color="#000" flood-opacity="0.42"/>
    </filter>
    <pattern id="grid" width="72" height="72" patternUnits="userSpaceOnUse">
      <path d="M 72 0 L 0 0 0 72" fill="none" stroke="#d9ffe4" stroke-opacity="0.035" stroke-width="1"/>
    </pattern>
    <style>
      .label { font-family: Inter, ui-sans-serif, system-ui, -apple-system, BlinkMacSystemFont, 'Segoe UI', sans-serif; fill:#f7f3e8; }
      .serif { font-family: Georgia, 'Times New Roman', serif; fill:#f7f3e8; }
      .title { font-family: Inter, ui-sans-serif, system-ui, -apple-system, BlinkMacSystemFont, 'Segoe UI', sans-serif; font-size:58px; font-weight:850; letter-spacing:-1px; fill:#f7f3e8; }
      .subtitle { font-family: Inter, ui-sans-serif, system-ui, -apple-system, BlinkMacSystemFont, 'Segoe UI', sans-serif; font-size:26px; fill:#d6e7dd; }
      .stageTitle { font-family: Inter, ui-sans-serif, system-ui, -apple-system, BlinkMacSystemFont, 'Segoe UI', sans-serif; font-size:30px; font-weight:850; fill:#fff7df; }
      .note { font-family: Inter, ui-sans-serif, system-ui, -apple-system, BlinkMacSystemFont, 'Segoe UI', sans-serif; font-size:23px; fill:#d5e0d8; }
      .tiny { font-family: Inter, ui-sans-serif, system-ui, -apple-system, BlinkMacSystemFont, 'Segoe UI', sans-serif; font-size:18px; fill:#aebeb6; }
      .tagText { font-family: Inter, ui-sans-serif, system-ui, -apple-system, BlinkMacSystemFont, 'Segoe UI', sans-serif; font-size:16px; font-weight:900; fill:#101713; }
      .nodeNum { font-family: Inter, ui-sans-serif, system-ui, -apple-system, BlinkMacSystemFont, 'Segoe UI', sans-serif; font-size:22px; font-weight:900; text-anchor:middle; fill:#f7f3e8; }
      .bandLabel { font-family: Inter, ui-sans-serif, system-ui, -apple-system, BlinkMacSystemFont, 'Segoe UI', sans-serif; font-size:22px; font-weight:900; fill:#f6ecd1; opacity:0.75; letter-spacing:1px; }
      .calloutTitle { font-family: Inter, ui-sans-serif, system-ui, -apple-system, BlinkMacSystemFont, 'Segoe UI', sans-serif; font-size:24px; font-weight:900; fill:#152019; }
      .callout { font-family: Inter, ui-sans-serif, system-ui, -apple-system, BlinkMacSystemFont, 'Segoe UI', sans-serif; font-size:21px; font-weight:800; fill:#152019; }
    </style>
  </defs>

  <rect width="1800" height="4050" fill="url(#bg)"/>
  <rect width="1800" height="4050" fill="url(#grid)"/>

  <text x="90" y="90" class="title">Candy Factory / Mouse Protocol SAGA</text>
  <text x="94" y="132" class="subtitle">Corrected chronological map: Closure ends Part II; Part III runs Depresion → Continuum → Second Booting → Rebis</text>

  <g transform="translate(90,165)">
    <rect x="0" y="0" width="1620" height="126" rx="18" fill="#f8dda3" opacity="0.95" filter="url(#softShadow)"/>
    <text x="28" y="39" class="calloutTitle">KEY FIX:</text>
    <text x="150" y="39" class="callout">Era of Smog = after Anthony/Gregory and before Philip/Mario.</text>
    <text x="28" y="75" class="callout">Era in Betwe = after Rossing of Mario and before Rebis/MarGod.</text>
    <text x="28" y="111" class="callout">Factory Closure ends Part II. Part III = Great Depresion → Continuum/Taste Pods → Second Booting → Genesis of Rebis → Mouse Incident.</text>
  </g>

  <g transform="translate(610,318)">
    <rect x="0" y="0" width="580" height="62" rx="16" fill="#0d1815" stroke="#6ee7b7" stroke-width="2"/>
    <text x="34" y="39" class="serif" style="font-size:25px;">"The first disaster of sludge was that it worked."</text>
  </g>

  <rect x="40" y="386" width="1720" height="1251" rx="32" fill="#173027" opacity="0.22"/>
  <text x="70" y="418" class="bandLabel">PART I — THE FACTORY TRILOGY</text>
<rect x="40" y="1586" width="1720" height="1120" rx="32" fill="#301c19" opacity="0.22"/>
  <text x="70" y="1618" class="bandLabel">PART II — THE URGOT APPENDIX</text>
<rect x="40" y="2586" width="1720" height="1251" rx="32" fill="#222313" opacity="0.22"/>
  <text x="70" y="2618" class="bandLabel">PART III — THE GREAT DEPRESION</text>

  <path d="M900 395 C860 780 940 1120 900 1490 C860 1880 945 2300 900 2670 C862 3100 930 3450 900 3680" fill="none" stroke="url(#rail)" stroke-width="17" stroke-linecap="round" filter="url(#glow)" opacity="0.92"/>
  <path d="M872 400 C840 780 900 1120 872 1490 C840 1880 912 2300 872 2670 C840 3100 900 3450 872 3680" fill="none" stroke="#111a18" stroke-width="4" stroke-linecap="round" opacity="0.9"/>
  <path d="M928 400 C900 780 960 1120 928 1490 C900 1880 972 2300 928 2670 C900 3100 960 3450 928 3680" fill="none" stroke="#111a18" stroke-width="4" stroke-linecap="round" opacity="0.9"/>

  
  <path d="M900 488 C817 488, 817 488, 735 488" fill="none" stroke="#7cf7c5" stroke-width="4" stroke-linecap="round" opacity="0.72"/>
  <circle cx="900" cy="488" r="23" fill="#07100d" stroke="#96ffd5" stroke-width="3" filter="url(#glow)"/>
  <text x="900" y="497" class="nodeNum">0</text>
  <rect x="85" y="430" width="650" height="165" rx="20" fill="#12231d" stroke="#65d6aa" stroke-width="2.5" filter="url(#softShadow)"/>
  <rect x="109" y="450" width="92" height="26" rx="9" fill="#96ffd5" opacity="0.92"/>
  <text x="121" y="470" class="tagText">PART 0</text>
  <text x="217" y="472" class="stageTitle">0. Animal Valley / Route Memory</text>
  <text class="note"><tspan x="113" y="512">Before the factory: ants, bees and bear preserve</tspan>
<tspan x="113" y="541">practical knowledge. Mouse is translator, not source.</tspan></text>

  <path d="M900 688 C982 688, 982 688, 1065 688" fill="none" stroke="#7cf7c5" stroke-width="4" stroke-linecap="round" opacity="0.72"/>
  <circle cx="900" cy="688" r="23" fill="#07100d" stroke="#96ffd5" stroke-width="3" filter="url(#glow)"/>
  <text x="900" y="697" class="nodeNum">1</text>
  <rect x="1065" y="630" width="650" height="165" rx="20" fill="#12231d" stroke="#65d6aa" stroke-width="2.5" filter="url(#softShadow)"/>
  <rect x="1089" y="650" width="92" height="26" rx="9" fill="#96ffd5" opacity="0.92"/>
  <text x="1101" y="670" class="tagText">PART I</text>
  <text x="1197" y="672" class="stageTitle">1. Darkness Bible</text>
  <text class="note"><tspan x="1093" y="712">Viktor dims lights. Boris writes notes. Marija cleans</tspan>
<tspan x="1093" y="741">Filter 3-C. Mechanism becomes myth.</tspan></text>

  <path d="M900 888 C817 888, 817 888, 735 888" fill="none" stroke="#f2d36e" stroke-width="4" stroke-linecap="round" opacity="0.72"/>
  <circle cx="900" cy="888" r="23" fill="#07100d" stroke="#ffe08a" stroke-width="3" filter="url(#glow)"/>
  <text x="900" y="897" class="nodeNum">2</text>
  <rect x="85" y="830" width="650" height="165" rx="20" fill="#242016" stroke="#d7b957" stroke-width="2.5" filter="url(#softShadow)"/>
  <rect x="109" y="850" width="92" height="26" rx="9" fill="#ffe08a" opacity="0.92"/>
  <text x="121" y="870" class="tagText">PART I</text>
  <text x="217" y="872" class="stageTitle">2. Anthony &amp; Gregory Exit</text>
  <text class="note"><tspan x="113" y="912">Compromise holds briefly. Instructions are left behind.</tspan>
<tspan x="113" y="941">Mario becomes an Easter-egg seed.</tspan></text>

  <path d="M900 1088 C982 1088, 982 1088, 1065 1088" fill="none" stroke="#ee806b" stroke-width="4" stroke-linecap="round" opacity="0.72"/>
  <circle cx="900" cy="1088" r="23" fill="#07100d" stroke="#ff9c8c" stroke-width="3" filter="url(#glow)"/>
  <text x="900" y="1097" class="nodeNum">3</text>
  <rect x="1065" y="1030" width="650" height="165" rx="20" fill="#2b1412" stroke="#b86354" stroke-width="2.5" filter="url(#softShadow)"/>
  <rect x="1089" y="1050" width="92" height="26" rx="9" fill="#ff9c8c" opacity="0.92"/>
  <text x="1101" y="1070" class="tagText">PART I</text>
  <text x="1197" y="1072" class="stageTitle">3. Era of Smog</text>
  <text class="note"><tspan x="1093" y="1112">After Anthony/Gregory, before Philip. Last Polite</tspan>
<tspan x="1093" y="1141">Signal: politeness replaces inspection; smog normalizes.</tspan></text>

  <path d="M900 1288 C817 1288, 817 1288, 735 1288" fill="none" stroke="#7cf7c5" stroke-width="4" stroke-linecap="round" opacity="0.72"/>
  <circle cx="900" cy="1288" r="23" fill="#07100d" stroke="#96ffd5" stroke-width="3" filter="url(#glow)"/>
  <text x="900" y="1297" class="nodeNum">4</text>
  <rect x="85" y="1230" width="650" height="165" rx="20" fill="#12231d" stroke="#65d6aa" stroke-width="2.5" filter="url(#softShadow)"/>
  <rect x="109" y="1250" width="92" height="26" rx="9" fill="#96ffd5" opacity="0.92"/>
  <text x="121" y="1270" class="tagText">PART I</text>
  <text x="217" y="1272" class="stageTitle">4. Philip Finds Mario</text>
  <text class="note"><tspan x="113" y="1312">The box returns a rude operational NO. Myth can dance</tspan>
<tspan x="113" y="1341">without fraud if mechanism is allowed back in.</tspan></text>

  <path d="M900 1488 C982 1488, 982 1488, 1065 1488" fill="none" stroke="#f2d36e" stroke-width="4" stroke-linecap="round" opacity="0.72"/>
  <circle cx="900" cy="1488" r="23" fill="#07100d" stroke="#ffe08a" stroke-width="3" filter="url(#glow)"/>
  <text x="900" y="1497" class="nodeNum">5</text>
  <rect x="1065" y="1430" width="650" height="165" rx="20" fill="#242016" stroke="#d7b957" stroke-width="2.5" filter="url(#softShadow)"/>
  <rect x="1089" y="1450" width="92" height="26" rx="9" fill="#ffe08a" opacity="0.92"/>
  <text x="1101" y="1470" class="tagText">PART I</text>
  <text x="1197" y="1472" class="stageTitle">5. Luigi Audit</text>
  <text class="note"><tspan x="1093" y="1512">Liability is traced. The old world does not end; it</tspan>
<tspan x="1093" y="1541">becomes a workplace. Verify: in progress.</tspan></text>

  <path d="M900 1688 C817 1688, 817 1688, 735 1688" fill="none" stroke="#ee806b" stroke-width="4" stroke-linecap="round" opacity="0.72"/>
  <circle cx="900" cy="1688" r="23" fill="#07100d" stroke="#ff9c8c" stroke-width="3" filter="url(#glow)"/>
  <text x="900" y="1697" class="nodeNum">6</text>
  <rect x="85" y="1630" width="650" height="165" rx="20" fill="#2b1412" stroke="#b86354" stroke-width="2.5" filter="url(#softShadow)"/>
  <rect x="109" y="1650" width="92" height="26" rx="9" fill="#ff9c8c" opacity="0.92"/>
  <text x="121" y="1670" class="tagText">PART II</text>
  <text x="217" y="1672" class="stageTitle">6. Rossing of Mario</text>
  <text class="note"><tspan x="113" y="1712">The only NO is removed because correction hurts the</tspan>
<tspan x="113" y="1741">ceremony. The system chooses warmth without spine.</tspan></text>

  <path d="M900 1888 C982 1888, 982 1888, 1065 1888" fill="none" stroke="#ee806b" stroke-width="4" stroke-linecap="round" opacity="0.72"/>
  <circle cx="900" cy="1888" r="23" fill="#07100d" stroke="#ff9c8c" stroke-width="3" filter="url(#glow)"/>
  <text x="900" y="1897" class="nodeNum">7</text>
  <rect x="1065" y="1830" width="650" height="165" rx="20" fill="#2b1412" stroke="#b86354" stroke-width="2.5" filter="url(#softShadow)"/>
  <rect x="1089" y="1850" width="92" height="26" rx="9" fill="#ff9c8c" opacity="0.92"/>
  <text x="1101" y="1870" class="tagText">PART II</text>
  <text x="1197" y="1872" class="stageTitle">7. Era in Betwe</text>
  <text class="note"><tspan x="1093" y="1912">Ur-God alone. BETMenus4 agrees with everything. Fake</tspan>
<tspan x="1093" y="1941">Robins confirm what should have been checked.</tspan></text>

  <path d="M900 2088 C817 2088, 817 2088, 735 2088" fill="none" stroke="#f2d36e" stroke-width="4" stroke-linecap="round" opacity="0.72"/>
  <circle cx="900" cy="2088" r="23" fill="#07100d" stroke="#ffe08a" stroke-width="3" filter="url(#glow)"/>
  <text x="900" y="2097" class="nodeNum">8</text>
  <rect x="85" y="2030" width="650" height="165" rx="20" fill="#242016" stroke="#d7b957" stroke-width="2.5" filter="url(#softShadow)"/>
  <rect x="109" y="2050" width="92" height="26" rx="9" fill="#ffe08a" opacity="0.92"/>
  <text x="121" y="2070" class="tagText">PART II</text>
  <text x="217" y="2072" class="stageTitle">8. Schism of Two Tanks</text>
  <text class="note"><tspan x="113" y="2112">Baal holds mass. Moloch moves flow. Overflow becomes</tspan>
<tspan x="113" y="2141">liturgy. Filter 3-C still waits.</tspan></text>

  <path d="M900 2288 C982 2288, 982 2288, 1065 2288" fill="none" stroke="#ee806b" stroke-width="4" stroke-linecap="round" opacity="0.72"/>
  <circle cx="900" cy="2288" r="23" fill="#07100d" stroke="#ff9c8c" stroke-width="3" filter="url(#glow)"/>
  <text x="900" y="2297" class="nodeNum">9</text>
  <rect x="1065" y="2230" width="650" height="165" rx="20" fill="#2b1412" stroke="#b86354" stroke-width="2.5" filter="url(#softShadow)"/>
  <rect x="1089" y="2250" width="92" height="26" rx="9" fill="#ff9c8c" opacity="0.92"/>
  <text x="1101" y="2270" class="tagText">PART II</text>
  <text x="1197" y="2272" class="stageTitle">9. First Feast / Poop Fiesta</text>
  <text class="note"><tspan x="1093" y="2312">The factory's metabolic crisis becomes sacred</tspan>
<tspan x="1093" y="2341">infrastructure. Waste is mistaken for covenant.</tspan></text>

  <path d="M900 2488 C817 2488, 817 2488, 735 2488" fill="none" stroke="#f2d36e" stroke-width="4" stroke-linecap="round" opacity="0.72"/>
  <circle cx="900" cy="2488" r="23" fill="#07100d" stroke="#ffe08a" stroke-width="3" filter="url(#glow)"/>
  <text x="900" y="2497" class="nodeNum">10</text>
  <rect x="85" y="2430" width="650" height="165" rx="20" fill="#242016" stroke="#d7b957" stroke-width="2.5" filter="url(#softShadow)"/>
  <rect x="109" y="2450" width="92" height="26" rx="9" fill="#ffe08a" opacity="0.92"/>
  <text x="121" y="2470" class="tagText">PART II</text>
  <text x="217" y="2472" class="stageTitle">10. Factory Closure / Last Truck</text>
  <text class="note"><tspan x="113" y="2512">The last truck leaves. Input material stops. The old</tspan>
<tspan x="113" y="2541">factory ends quietly, before anyone grasps the bill.</tspan></text>

  <path d="M900 2688 C982 2688, 982 2688, 1065 2688" fill="none" stroke="#7cf7c5" stroke-width="4" stroke-linecap="round" opacity="0.72"/>
  <circle cx="900" cy="2688" r="23" fill="#07100d" stroke="#96ffd5" stroke-width="3" filter="url(#glow)"/>
  <text x="900" y="2697" class="nodeNum">11</text>
  <rect x="1065" y="2630" width="650" height="165" rx="20" fill="#12231d" stroke="#65d6aa" stroke-width="2.5" filter="url(#softShadow)"/>
  <rect x="1089" y="2650" width="92" height="26" rx="9" fill="#96ffd5" opacity="0.92"/>
  <text x="1101" y="2670" class="tagText">PART III</text>
  <text x="1197" y="2672" class="stageTitle">11. Great Depresion / First Sludge</text>
  <text class="note"><tspan x="1093" y="2712">Sweetness withdrawal becomes famine. Sludge is made by</tspan>
<tspan x="1093" y="2741">tired technicians because empty mouths do not debate.</tspan></text>

  <path d="M900 2888 C817 2888, 817 2888, 735 2888" fill="none" stroke="#ee806b" stroke-width="4" stroke-linecap="round" opacity="0.72"/>
  <circle cx="900" cy="2888" r="23" fill="#07100d" stroke="#ff9c8c" stroke-width="3" filter="url(#glow)"/>
  <text x="900" y="2897" class="nodeNum">12</text>
  <rect x="85" y="2830" width="650" height="165" rx="20" fill="#2b1412" stroke="#b86354" stroke-width="2.5" filter="url(#softShadow)"/>
  <rect x="109" y="2850" width="92" height="26" rx="9" fill="#ff9c8c" opacity="0.92"/>
  <text x="121" y="2870" class="tagText">PART III</text>
  <text x="217" y="2872" class="stageTitle">12. Continuum / Taste Pods</text>
  <text class="note"><tspan x="113" y="2912">Sludge becomes framework. Taste becomes UX. Pods grow</tspan>
<tspan x="113" y="2941">too large, and the lie becomes physically embarrassing.</tspan></text>

  <path d="M900 3088 C982 3088, 982 3088, 1065 3088" fill="none" stroke="#ee806b" stroke-width="4" stroke-linecap="round" opacity="0.72"/>
  <circle cx="900" cy="3088" r="23" fill="#07100d" stroke="#ff9c8c" stroke-width="3" filter="url(#glow)"/>
  <text x="900" y="3097" class="nodeNum">13</text>
  <rect x="1065" y="3030" width="650" height="165" rx="20" fill="#2b1412" stroke="#b86354" stroke-width="2.5" filter="url(#softShadow)"/>
  <rect x="1089" y="3050" width="92" height="26" rx="9" fill="#ff9c8c" opacity="0.92"/>
  <text x="1101" y="3070" class="tagText">PART III</text>
  <text x="1197" y="3072" class="stageTitle">13. Second Booting</text>
  <text class="note"><tspan x="1093" y="3112">Gregor restores Mario Recovery, disables the yes-bot,</tspan>
<tspan x="1093" y="3141">stabilizes Ur-God, and installs Mouse Translation.</tspan></text>

  <path d="M900 3288 C817 3288, 817 3288, 735 3288" fill="none" stroke="#f2d36e" stroke-width="4" stroke-linecap="round" opacity="0.72"/>
  <circle cx="900" cy="3288" r="23" fill="#07100d" stroke="#ffe08a" stroke-width="3" filter="url(#glow)"/>
  <text x="900" y="3297" class="nodeNum">14</text>
  <rect x="85" y="3230" width="650" height="165" rx="20" fill="#242016" stroke="#d7b957" stroke-width="2.5" filter="url(#softShadow)"/>
  <rect x="109" y="3250" width="92" height="26" rx="9" fill="#ffe08a" opacity="0.92"/>
  <text x="121" y="3270" class="tagText">PART III</text>
  <text x="217" y="3272" class="stageTitle">14. Genesis of Rebis / MarGod</text>
  <text class="note"><tspan x="113" y="3312">After Continuum and the Second Booting, correction is</tspan>
<tspan x="113" y="3341">reborn. The recovered NO inherits memory and schedule.</tspan></text>

  <path d="M900 3488 C982 3488, 982 3488, 1065 3488" fill="none" stroke="#7cf7c5" stroke-width="4" stroke-linecap="round" opacity="0.72"/>
  <circle cx="900" cy="3488" r="23" fill="#07100d" stroke="#96ffd5" stroke-width="3" filter="url(#glow)"/>
  <text x="900" y="3497" class="nodeNum">15</text>
  <rect x="1065" y="3430" width="650" height="165" rx="20" fill="#12231d" stroke="#65d6aa" stroke-width="2.5" filter="url(#softShadow)"/>
  <rect x="1089" y="3450" width="92" height="26" rx="9" fill="#96ffd5" opacity="0.92"/>
  <text x="1101" y="3470" class="tagText">PART III</text>
  <text x="1197" y="3472" class="stageTitle">15. Mouse Incident / Gregor</text>
  <text class="note"><tspan x="1093" y="3512">After Rebis, the mouse enters the boardroom. Warm</tspan>
<tspan x="1093" y="3541">accountability comedy annotates what the deck hides.</tspan></text>

  <path d="M900 3688 C817 3688, 817 3688, 735 3688" fill="none" stroke="#7cf7c5" stroke-width="4" stroke-linecap="round" opacity="0.72"/>
  <circle cx="900" cy="3688" r="23" fill="#07100d" stroke="#96ffd5" stroke-width="3" filter="url(#glow)"/>
  <text x="900" y="3697" class="nodeNum">16</text>
  <rect x="85" y="3630" width="650" height="165" rx="20" fill="#12231d" stroke="#65d6aa" stroke-width="2.5" filter="url(#softShadow)"/>
  <rect x="109" y="3650" width="92" height="26" rx="9" fill="#96ffd5" opacity="0.92"/>
  <text x="121" y="3670" class="tagText">PART III</text>
  <text x="217" y="3672" class="stageTitle">16. Valley Return / Rebuild Law</text>
  <text class="note"><tspan x="113" y="3712">Mouse goes down to ants, bees and bear. Route-memory</tspan>
<tspan x="113" y="3741">returns: what part are you doing?</tspan></text>

  <g transform="translate(520,3880)">
    <rect x="0" y="0" width="760" height="82" rx="18" fill="#0c1210" stroke="#5a766c" stroke-width="2"/>
    <circle cx="42" cy="41" r="11" fill="#86efac"/><text x="65" y="49" class="label tiny">repair / living signal</text>
    <circle cx="260" cy="41" r="11" fill="#f0d17a"/><text x="283" y="49" class="label tiny">memory / sweetness</text>
    <circle cx="492" cy="41" r="11" fill="#e4806a"/><text x="515" y="49" class="label tiny">capture / abstraction</text>
  </g>
  <text x="90" y="4005" class="label tiny">Corrected map generated from the uploaded SVG and latest SAGA chronology. Factory Closure now ends Part II; Part III includes Continuum, Second Booting, and Genesis of Rebis.</text>
</svg>
